<svg width="30" height="38" viewBox="0 0 30 38" fill="none" xmlns="http://www.w3.org/2000/svg">
<path d="M15 38C17.3652 38 19.2837 35.8736 19.2837 33.25H10.7163C10.7163 35.8736 12.6348 38 15 38ZM29.4234 26.8887C28.1297 25.3479 25.7089 23.0301 25.7089 15.4375C25.7089 9.6707 22.0607 5.0543 17.1415 3.92172V2.375C17.1415 1.06355 16.1826 0 15 0C13.8174 0 12.8585 1.06355 12.8585 2.375V3.92172C7.93931 5.0543 4.2911 9.6707 4.2911 15.4375C4.2911 23.0301 1.87035 25.3479 0.576607 26.8887C0.174823 27.3674 -0.00330191 27.9396 4.62982e-05 28.5C0.00741235 29.7172 0.86924 30.875 2.14959 30.875H27.8504C29.1308 30.875 29.9933 29.7172 30 28.5C30.0033 27.9396 29.8252 27.3667 29.4234 26.8887Z" fill="white"/>
</svg>
